<mxfile host="app.diagrams.net" modified="2022-09-28T12:00:59.691Z" agent="5.0 (Windows NT 10.0; Win64; x64) AppleWebKit/537.36 (KHTML, like Gecko) Chrome/105.0.0.0 Safari/537.36" etag="YixBjSsJeLTSKi9JyD7D" version="20.3.7" type="github">
  <diagram id="tbJE3glOUyHPcwlZO3bd" name="Страница 1">
    <mxGraphModel dx="1128" dy="788" grid="1" gridSize="10" guides="1" tooltips="1" connect="1" arrows="1" fold="1" page="1" pageScale="1" pageWidth="827" pageHeight="1169" math="0" shadow="0">
      <root>
        <mxCell id="0" />
        <mxCell id="1" parent="0" />
        <mxCell id="wAppSGFLKVEdXB1okQLq-21" style="edgeStyle=orthogonalEdgeStyle;rounded=0;orthogonalLoop=1;jettySize=auto;html=1;exitX=0.5;exitY=1;exitDx=0;exitDy=0;entryX=0.5;entryY=0;entryDx=0;entryDy=0;" edge="1" parent="1" source="wAppSGFLKVEdXB1okQLq-1" target="wAppSGFLKVEdXB1okQLq-20">
          <mxGeometry relative="1" as="geometry" />
        </mxCell>
        <mxCell id="wAppSGFLKVEdXB1okQLq-1" value="InputTextArr(int n)" style="rounded=1;whiteSpace=wrap;html=1;" vertex="1" parent="1">
          <mxGeometry x="320" y="30" width="120" height="60" as="geometry" />
        </mxCell>
        <mxCell id="wAppSGFLKVEdXB1okQLq-13" style="edgeStyle=orthogonalEdgeStyle;rounded=0;orthogonalLoop=1;jettySize=auto;html=1;exitX=0;exitY=0.5;exitDx=0;exitDy=0;" edge="1" parent="1" source="wAppSGFLKVEdXB1okQLq-6" target="wAppSGFLKVEdXB1okQLq-10">
          <mxGeometry relative="1" as="geometry" />
        </mxCell>
        <mxCell id="wAppSGFLKVEdXB1okQLq-16" value="YES" style="edgeLabel;html=1;align=center;verticalAlign=middle;resizable=0;points=[];" vertex="1" connectable="0" parent="wAppSGFLKVEdXB1okQLq-13">
          <mxGeometry x="-0.6222" y="2" relative="1" as="geometry">
            <mxPoint as="offset" />
          </mxGeometry>
        </mxCell>
        <mxCell id="wAppSGFLKVEdXB1okQLq-14" style="edgeStyle=orthogonalEdgeStyle;rounded=0;orthogonalLoop=1;jettySize=auto;html=1;exitX=1;exitY=0.5;exitDx=0;exitDy=0;entryX=0.5;entryY=0;entryDx=0;entryDy=0;" edge="1" parent="1" source="wAppSGFLKVEdXB1okQLq-6" target="wAppSGFLKVEdXB1okQLq-9">
          <mxGeometry relative="1" as="geometry" />
        </mxCell>
        <mxCell id="wAppSGFLKVEdXB1okQLq-15" value="NO" style="edgeLabel;html=1;align=center;verticalAlign=middle;resizable=0;points=[];" vertex="1" connectable="0" parent="wAppSGFLKVEdXB1okQLq-14">
          <mxGeometry x="-0.6316" y="1" relative="1" as="geometry">
            <mxPoint as="offset" />
          </mxGeometry>
        </mxCell>
        <mxCell id="wAppSGFLKVEdXB1okQLq-6" value="s == &quot;&quot;" style="rhombus;whiteSpace=wrap;html=1;" vertex="1" parent="1">
          <mxGeometry x="340" y="200" width="80" height="80" as="geometry" />
        </mxCell>
        <mxCell id="wAppSGFLKVEdXB1okQLq-18" style="edgeStyle=orthogonalEdgeStyle;rounded=0;orthogonalLoop=1;jettySize=auto;html=1;" edge="1" parent="1" source="wAppSGFLKVEdXB1okQLq-9">
          <mxGeometry relative="1" as="geometry">
            <mxPoint x="390" y="420" as="targetPoint" />
          </mxGeometry>
        </mxCell>
        <mxCell id="wAppSGFLKVEdXB1okQLq-9" value="res = InputTextArr(n+1)&lt;br&gt;res[n] = s" style="rounded=0;whiteSpace=wrap;html=1;" vertex="1" parent="1">
          <mxGeometry x="440" y="290" width="200" height="60" as="geometry" />
        </mxCell>
        <mxCell id="wAppSGFLKVEdXB1okQLq-17" style="edgeStyle=orthogonalEdgeStyle;rounded=0;orthogonalLoop=1;jettySize=auto;html=1;entryX=0.489;entryY=-0.001;entryDx=0;entryDy=0;entryPerimeter=0;" edge="1" parent="1" source="wAppSGFLKVEdXB1okQLq-10" target="wAppSGFLKVEdXB1okQLq-44">
          <mxGeometry relative="1" as="geometry">
            <mxPoint x="387.91999999999985" y="416.02" as="targetPoint" />
          </mxGeometry>
        </mxCell>
        <mxCell id="wAppSGFLKVEdXB1okQLq-10" value="string [] res = new string[n]&amp;nbsp;" style="rounded=0;whiteSpace=wrap;html=1;" vertex="1" parent="1">
          <mxGeometry x="140" y="290" width="180" height="60" as="geometry" />
        </mxCell>
        <mxCell id="wAppSGFLKVEdXB1okQLq-22" style="edgeStyle=orthogonalEdgeStyle;rounded=0;orthogonalLoop=1;jettySize=auto;html=1;exitX=0.5;exitY=1;exitDx=0;exitDy=0;entryX=0.5;entryY=0;entryDx=0;entryDy=0;" edge="1" parent="1" source="wAppSGFLKVEdXB1okQLq-20" target="wAppSGFLKVEdXB1okQLq-6">
          <mxGeometry relative="1" as="geometry" />
        </mxCell>
        <mxCell id="wAppSGFLKVEdXB1okQLq-20" value="s" style="shape=parallelogram;perimeter=parallelogramPerimeter;whiteSpace=wrap;html=1;fixedSize=1;" vertex="1" parent="1">
          <mxGeometry x="320" y="120" width="120" height="60" as="geometry" />
        </mxCell>
        <mxCell id="wAppSGFLKVEdXB1okQLq-34" value="" style="edgeStyle=orthogonalEdgeStyle;rounded=0;orthogonalLoop=1;jettySize=auto;html=1;" edge="1" parent="1" source="wAppSGFLKVEdXB1okQLq-23" target="wAppSGFLKVEdXB1okQLq-25">
          <mxGeometry relative="1" as="geometry" />
        </mxCell>
        <mxCell id="wAppSGFLKVEdXB1okQLq-23" value="GetColElementsBySize(string [] messages, int size)" style="rounded=1;whiteSpace=wrap;html=1;" vertex="1" parent="1">
          <mxGeometry x="240" y="460" width="295" height="70" as="geometry" />
        </mxCell>
        <mxCell id="wAppSGFLKVEdXB1okQLq-33" style="edgeStyle=orthogonalEdgeStyle;rounded=0;orthogonalLoop=1;jettySize=auto;html=1;entryX=0.5;entryY=0;entryDx=0;entryDy=0;" edge="1" parent="1" source="wAppSGFLKVEdXB1okQLq-25" target="wAppSGFLKVEdXB1okQLq-26">
          <mxGeometry relative="1" as="geometry" />
        </mxCell>
        <mxCell id="wAppSGFLKVEdXB1okQLq-25" value="counter = 0&lt;br&gt;result = 0" style="rounded=0;whiteSpace=wrap;html=1;" vertex="1" parent="1">
          <mxGeometry x="327.5" y="560" width="120" height="60" as="geometry" />
        </mxCell>
        <mxCell id="wAppSGFLKVEdXB1okQLq-31" style="edgeStyle=orthogonalEdgeStyle;rounded=0;orthogonalLoop=1;jettySize=auto;html=1;entryX=0.5;entryY=0;entryDx=0;entryDy=0;" edge="1" parent="1" source="wAppSGFLKVEdXB1okQLq-26" target="wAppSGFLKVEdXB1okQLq-27">
          <mxGeometry relative="1" as="geometry" />
        </mxCell>
        <mxCell id="wAppSGFLKVEdXB1okQLq-32" value="YES" style="edgeLabel;html=1;align=center;verticalAlign=middle;resizable=0;points=[];" vertex="1" connectable="0" parent="wAppSGFLKVEdXB1okQLq-31">
          <mxGeometry x="-0.6644" y="-1" relative="1" as="geometry">
            <mxPoint as="offset" />
          </mxGeometry>
        </mxCell>
        <mxCell id="wAppSGFLKVEdXB1okQLq-43" value="" style="edgeStyle=orthogonalEdgeStyle;rounded=0;orthogonalLoop=1;jettySize=auto;html=1;" edge="1" parent="1" source="wAppSGFLKVEdXB1okQLq-26" target="wAppSGFLKVEdXB1okQLq-42">
          <mxGeometry relative="1" as="geometry" />
        </mxCell>
        <mxCell id="wAppSGFLKVEdXB1okQLq-26" value="counter &amp;lt; messages.length" style="rhombus;whiteSpace=wrap;html=1;" vertex="1" parent="1">
          <mxGeometry x="277.5" y="650" width="220" height="110" as="geometry" />
        </mxCell>
        <mxCell id="wAppSGFLKVEdXB1okQLq-36" value="" style="edgeStyle=orthogonalEdgeStyle;rounded=0;orthogonalLoop=1;jettySize=auto;html=1;" edge="1" parent="1" source="wAppSGFLKVEdXB1okQLq-27" target="wAppSGFLKVEdXB1okQLq-29">
          <mxGeometry relative="1" as="geometry" />
        </mxCell>
        <mxCell id="wAppSGFLKVEdXB1okQLq-38" value="YES" style="edgeLabel;html=1;align=center;verticalAlign=middle;resizable=0;points=[];" vertex="1" connectable="0" parent="wAppSGFLKVEdXB1okQLq-36">
          <mxGeometry x="-0.6883" relative="1" as="geometry">
            <mxPoint y="1" as="offset" />
          </mxGeometry>
        </mxCell>
        <mxCell id="wAppSGFLKVEdXB1okQLq-39" style="edgeStyle=orthogonalEdgeStyle;rounded=0;orthogonalLoop=1;jettySize=auto;html=1;" edge="1" parent="1" source="wAppSGFLKVEdXB1okQLq-27">
          <mxGeometry relative="1" as="geometry">
            <mxPoint x="387.5" y="1030" as="targetPoint" />
            <Array as="points">
              <mxPoint x="520" y="860" />
              <mxPoint x="520" y="1030" />
            </Array>
          </mxGeometry>
        </mxCell>
        <mxCell id="wAppSGFLKVEdXB1okQLq-41" value="NO" style="edgeLabel;html=1;align=center;verticalAlign=middle;resizable=0;points=[];" vertex="1" connectable="0" parent="wAppSGFLKVEdXB1okQLq-39">
          <mxGeometry x="-0.4917" y="-1" relative="1" as="geometry">
            <mxPoint as="offset" />
          </mxGeometry>
        </mxCell>
        <mxCell id="wAppSGFLKVEdXB1okQLq-27" value="messages[counter].length == size" style="rhombus;whiteSpace=wrap;html=1;" vertex="1" parent="1">
          <mxGeometry x="283.75" y="810" width="207.5" height="100" as="geometry" />
        </mxCell>
        <mxCell id="wAppSGFLKVEdXB1okQLq-37" value="" style="edgeStyle=orthogonalEdgeStyle;rounded=0;orthogonalLoop=1;jettySize=auto;html=1;" edge="1" parent="1" source="wAppSGFLKVEdXB1okQLq-29" target="wAppSGFLKVEdXB1okQLq-30">
          <mxGeometry relative="1" as="geometry" />
        </mxCell>
        <mxCell id="wAppSGFLKVEdXB1okQLq-29" value="result++" style="rounded=0;whiteSpace=wrap;html=1;" vertex="1" parent="1">
          <mxGeometry x="327.5" y="940" width="120" height="60" as="geometry" />
        </mxCell>
        <mxCell id="wAppSGFLKVEdXB1okQLq-35" style="edgeStyle=orthogonalEdgeStyle;rounded=0;orthogonalLoop=1;jettySize=auto;html=1;" edge="1" parent="1" source="wAppSGFLKVEdXB1okQLq-30">
          <mxGeometry relative="1" as="geometry">
            <mxPoint x="387.5" y="630" as="targetPoint" />
            <Array as="points">
              <mxPoint x="230" y="1070" />
              <mxPoint x="230" y="630" />
            </Array>
          </mxGeometry>
        </mxCell>
        <mxCell id="wAppSGFLKVEdXB1okQLq-30" value="counter++" style="rounded=0;whiteSpace=wrap;html=1;" vertex="1" parent="1">
          <mxGeometry x="327.5" y="1040" width="120" height="60" as="geometry" />
        </mxCell>
        <mxCell id="wAppSGFLKVEdXB1okQLq-42" value="result" style="shape=parallelogram;perimeter=parallelogramPerimeter;whiteSpace=wrap;html=1;fixedSize=1;" vertex="1" parent="1">
          <mxGeometry x="570" y="675" width="120" height="60" as="geometry" />
        </mxCell>
        <mxCell id="wAppSGFLKVEdXB1okQLq-44" value="res" style="shape=parallelogram;perimeter=parallelogramPerimeter;whiteSpace=wrap;html=1;fixedSize=1;" vertex="1" parent="1">
          <mxGeometry x="330" y="370" width="120" height="59" as="geometry" />
        </mxCell>
        <mxCell id="wAppSGFLKVEdXB1okQLq-49" value="" style="edgeStyle=orthogonalEdgeStyle;rounded=0;orthogonalLoop=1;jettySize=auto;html=1;" edge="1" parent="1" source="wAppSGFLKVEdXB1okQLq-45" target="wAppSGFLKVEdXB1okQLq-47">
          <mxGeometry relative="1" as="geometry" />
        </mxCell>
        <mxCell id="wAppSGFLKVEdXB1okQLq-45" value="CreateArrayByElemSize(string [] messages, int size)" style="rounded=1;whiteSpace=wrap;html=1;" vertex="1" parent="1">
          <mxGeometry x="827" y="250" width="300" height="90" as="geometry" />
        </mxCell>
        <mxCell id="wAppSGFLKVEdXB1okQLq-66" value="" style="edgeStyle=orthogonalEdgeStyle;rounded=0;orthogonalLoop=1;jettySize=auto;html=1;" edge="1" parent="1" source="wAppSGFLKVEdXB1okQLq-47" target="wAppSGFLKVEdXB1okQLq-51">
          <mxGeometry relative="1" as="geometry" />
        </mxCell>
        <mxCell id="wAppSGFLKVEdXB1okQLq-47" value="n = GetColElementsBySize(messages, size)&lt;br&gt;string [] result = new string[n]" style="rounded=0;whiteSpace=wrap;html=1;" vertex="1" parent="1">
          <mxGeometry x="853.5" y="380" width="247" height="100" as="geometry" />
        </mxCell>
        <mxCell id="wAppSGFLKVEdXB1okQLq-50" style="edgeStyle=orthogonalEdgeStyle;rounded=0;orthogonalLoop=1;jettySize=auto;html=1;entryX=0.5;entryY=0;entryDx=0;entryDy=0;" edge="1" parent="1" source="wAppSGFLKVEdXB1okQLq-51" target="wAppSGFLKVEdXB1okQLq-55">
          <mxGeometry relative="1" as="geometry" />
        </mxCell>
        <mxCell id="wAppSGFLKVEdXB1okQLq-51" value="counter = 0&lt;br&gt;next++" style="rounded=0;whiteSpace=wrap;html=1;" vertex="1" parent="1">
          <mxGeometry x="917.45" y="520" width="120" height="60" as="geometry" />
        </mxCell>
        <mxCell id="wAppSGFLKVEdXB1okQLq-52" style="edgeStyle=orthogonalEdgeStyle;rounded=0;orthogonalLoop=1;jettySize=auto;html=1;entryX=0.5;entryY=0;entryDx=0;entryDy=0;" edge="1" parent="1" source="wAppSGFLKVEdXB1okQLq-55" target="wAppSGFLKVEdXB1okQLq-60">
          <mxGeometry relative="1" as="geometry" />
        </mxCell>
        <mxCell id="wAppSGFLKVEdXB1okQLq-53" value="YES" style="edgeLabel;html=1;align=center;verticalAlign=middle;resizable=0;points=[];" vertex="1" connectable="0" parent="wAppSGFLKVEdXB1okQLq-52">
          <mxGeometry x="-0.6644" y="-1" relative="1" as="geometry">
            <mxPoint as="offset" />
          </mxGeometry>
        </mxCell>
        <mxCell id="wAppSGFLKVEdXB1okQLq-54" value="" style="edgeStyle=orthogonalEdgeStyle;rounded=0;orthogonalLoop=1;jettySize=auto;html=1;" edge="1" parent="1" source="wAppSGFLKVEdXB1okQLq-55" target="wAppSGFLKVEdXB1okQLq-65">
          <mxGeometry relative="1" as="geometry" />
        </mxCell>
        <mxCell id="wAppSGFLKVEdXB1okQLq-55" value="counter &amp;lt; messages.length" style="rhombus;whiteSpace=wrap;html=1;" vertex="1" parent="1">
          <mxGeometry x="867.45" y="610" width="220" height="110" as="geometry" />
        </mxCell>
        <mxCell id="wAppSGFLKVEdXB1okQLq-56" value="" style="edgeStyle=orthogonalEdgeStyle;rounded=0;orthogonalLoop=1;jettySize=auto;html=1;" edge="1" parent="1" source="wAppSGFLKVEdXB1okQLq-60" target="wAppSGFLKVEdXB1okQLq-62">
          <mxGeometry relative="1" as="geometry" />
        </mxCell>
        <mxCell id="wAppSGFLKVEdXB1okQLq-57" value="YES" style="edgeLabel;html=1;align=center;verticalAlign=middle;resizable=0;points=[];" vertex="1" connectable="0" parent="wAppSGFLKVEdXB1okQLq-56">
          <mxGeometry x="-0.6883" relative="1" as="geometry">
            <mxPoint y="1" as="offset" />
          </mxGeometry>
        </mxCell>
        <mxCell id="wAppSGFLKVEdXB1okQLq-58" style="edgeStyle=orthogonalEdgeStyle;rounded=0;orthogonalLoop=1;jettySize=auto;html=1;" edge="1" parent="1" source="wAppSGFLKVEdXB1okQLq-60">
          <mxGeometry relative="1" as="geometry">
            <mxPoint x="977.45" y="990" as="targetPoint" />
            <Array as="points">
              <mxPoint x="1109.95" y="820" />
              <mxPoint x="1109.95" y="990" />
            </Array>
          </mxGeometry>
        </mxCell>
        <mxCell id="wAppSGFLKVEdXB1okQLq-59" value="NO" style="edgeLabel;html=1;align=center;verticalAlign=middle;resizable=0;points=[];" vertex="1" connectable="0" parent="wAppSGFLKVEdXB1okQLq-58">
          <mxGeometry x="-0.4917" y="-1" relative="1" as="geometry">
            <mxPoint as="offset" />
          </mxGeometry>
        </mxCell>
        <mxCell id="wAppSGFLKVEdXB1okQLq-60" value="messages[counter].length == size" style="rhombus;whiteSpace=wrap;html=1;" vertex="1" parent="1">
          <mxGeometry x="873.7" y="770" width="207.5" height="100" as="geometry" />
        </mxCell>
        <mxCell id="wAppSGFLKVEdXB1okQLq-61" value="" style="edgeStyle=orthogonalEdgeStyle;rounded=0;orthogonalLoop=1;jettySize=auto;html=1;" edge="1" parent="1" source="wAppSGFLKVEdXB1okQLq-62" target="wAppSGFLKVEdXB1okQLq-64">
          <mxGeometry relative="1" as="geometry" />
        </mxCell>
        <mxCell id="wAppSGFLKVEdXB1okQLq-62" value="result[next] = messages[counter]&lt;br&gt;next++" style="rounded=0;whiteSpace=wrap;html=1;" vertex="1" parent="1">
          <mxGeometry x="862" y="900" width="230" height="60" as="geometry" />
        </mxCell>
        <mxCell id="wAppSGFLKVEdXB1okQLq-63" style="edgeStyle=orthogonalEdgeStyle;rounded=0;orthogonalLoop=1;jettySize=auto;html=1;" edge="1" parent="1" source="wAppSGFLKVEdXB1okQLq-64">
          <mxGeometry relative="1" as="geometry">
            <mxPoint x="977.45" y="590" as="targetPoint" />
            <Array as="points">
              <mxPoint x="819.95" y="1030" />
              <mxPoint x="819.95" y="590" />
            </Array>
          </mxGeometry>
        </mxCell>
        <mxCell id="wAppSGFLKVEdXB1okQLq-64" value="counter++" style="rounded=0;whiteSpace=wrap;html=1;" vertex="1" parent="1">
          <mxGeometry x="917.45" y="1000" width="120" height="60" as="geometry" />
        </mxCell>
        <mxCell id="wAppSGFLKVEdXB1okQLq-65" value="result" style="shape=parallelogram;perimeter=parallelogramPerimeter;whiteSpace=wrap;html=1;fixedSize=1;" vertex="1" parent="1">
          <mxGeometry x="1159.95" y="635" width="120" height="60" as="geometry" />
        </mxCell>
        <mxCell id="wAppSGFLKVEdXB1okQLq-70" value="" style="edgeStyle=orthogonalEdgeStyle;rounded=0;orthogonalLoop=1;jettySize=auto;html=1;" edge="1" parent="1" source="wAppSGFLKVEdXB1okQLq-67" target="wAppSGFLKVEdXB1okQLq-68">
          <mxGeometry relative="1" as="geometry" />
        </mxCell>
        <mxCell id="wAppSGFLKVEdXB1okQLq-67" value="START" style="rounded=1;whiteSpace=wrap;html=1;" vertex="1" parent="1">
          <mxGeometry x="650" y="85" width="120" height="60" as="geometry" />
        </mxCell>
        <mxCell id="wAppSGFLKVEdXB1okQLq-71" value="" style="edgeStyle=orthogonalEdgeStyle;rounded=0;orthogonalLoop=1;jettySize=auto;html=1;" edge="1" parent="1" source="wAppSGFLKVEdXB1okQLq-68" target="wAppSGFLKVEdXB1okQLq-69">
          <mxGeometry relative="1" as="geometry" />
        </mxCell>
        <mxCell id="wAppSGFLKVEdXB1okQLq-68" value="string[] msg = InputTextArr(0)&lt;br&gt;threeSymbArr =CreateArrayByElemSize(msg, 3)" style="rounded=0;whiteSpace=wrap;html=1;" vertex="1" parent="1">
          <mxGeometry x="810" y="60" width="270" height="110" as="geometry" />
        </mxCell>
        <mxCell id="wAppSGFLKVEdXB1okQLq-73" value="" style="edgeStyle=orthogonalEdgeStyle;rounded=0;orthogonalLoop=1;jettySize=auto;html=1;" edge="1" parent="1" source="wAppSGFLKVEdXB1okQLq-69" target="wAppSGFLKVEdXB1okQLq-72">
          <mxGeometry relative="1" as="geometry" />
        </mxCell>
        <mxCell id="wAppSGFLKVEdXB1okQLq-69" value="threeSymbArr" style="shape=parallelogram;perimeter=parallelogramPerimeter;whiteSpace=wrap;html=1;fixedSize=1;" vertex="1" parent="1">
          <mxGeometry x="1127" y="85" width="120" height="60" as="geometry" />
        </mxCell>
        <mxCell id="wAppSGFLKVEdXB1okQLq-72" value="FINISH" style="rounded=1;whiteSpace=wrap;html=1;" vertex="1" parent="1">
          <mxGeometry x="1290" y="85" width="120" height="60" as="geometry" />
        </mxCell>
      </root>
    </mxGraphModel>
  </diagram>
</mxfile>
